<svg xmlns="http://www.w3.org/2000/svg" xmlns:xlink="http://www.w3.org/1999/xlink" width="257" height="257" viewBox="0 0 257 257">
    <defs>
        <path id="a" d="M0 .469h111.753v191.53H0z"/>
        <path id="c" d="M.733.469H53.02v23.788H.733z"/>
    </defs>
    <g fill="none" fill-rule="evenodd">
        <rect width="257" height="257" fill="#ADD9DC" fill-opacity=".4" rx="12"/>
        <g transform="translate(73 32.531)">
            <mask id="b" fill="#fff">
                <use xlink:href="#a"/>
            </mask>
            <path fill="#EABEEA" d="M75.67 74.13L67.302.47H44.45L36.084 74.13a14.202 14.202 0 0 1-7.22 10.833C11.657 94.484 0 112.813 0 133.872c0 16.452 7.117 35.746 18.435 50.182 3.95 5.038 10.023 7.946 16.424 7.946h42.035c6.4 0 12.475-2.908 16.424-7.946 11.319-14.436 18.436-33.73 18.436-50.182 0-21.06-11.657-39.387-28.865-48.908a14.204 14.204 0 0 1-7.22-10.833" mask="url(#b)"/>
        </g>
        <g transform="translate(102 32.531)">
            <mask id="d" fill="#fff">
                <use xlink:href="#c"/>
            </mask>
            <path fill="#EABEEA" d="M41.126 24.257H12.628c-6.57 0-11.895-5.325-11.895-11.894C.733 5.793 6.059.469 12.628.469h28.498c6.568 0 11.894 5.325 11.894 11.894s-5.326 11.894-11.894 11.894" mask="url(#d)"/>
        </g>
        <path stroke="#2A3031" stroke-linecap="round" d="M114.628 56.788h14.249"/>
        <path fill="#F4D9AC" d="M155.725 208.279c9.457-12.061 15.567-28.5 15.567-41.876 0-4.366-.678-8.633-1.956-12.68-1.784-5.653-7.641-8.986-13.43-7.703-8.244 1.828-18.143 2.41-29.565.29-12.083-2.244-22.573-.878-31.24 1.99-3.724 1.232-6.521 4.354-7.446 8.165a41.965 41.965 0 0 0-1.194 9.938c0 13.378 6.11 29.815 15.57 41.878 1.369 1.746 3.548 2.789 5.829 2.789h42.034c2.282 0 4.462-1.044 5.83-2.791"/>
        <path fill="#FFF" d="M118.629 180.841a4.696 4.696 0 1 1-9.391 0 4.696 4.696 0 0 1 9.39 0M138.269 166.445a4.696 4.696 0 1 1-9.394-.002 4.696 4.696 0 0 1 9.394.002M143.574 190.233a4.695 4.695 0 1 1-9.393 0 4.695 4.695 0 0 1 9.393 0"/>
    </g>
</svg>
