<svg xmlns="http://www.w3.org/2000/svg" xmlns:xlink="http://www.w3.org/1999/xlink" width="256" height="256" viewBox="0 0 256 256">
    <defs>
        <path id="a" d="M0 .187h134.526V166H0z"/>
    </defs>
    <g fill="none" fill-rule="evenodd">
        <rect width="256" height="256" fill="#FAEFDB" fill-opacity=".7" rx="12"/>
        <g transform="translate(61 58.202)">
            <mask id="b" fill="#fff">
                <use xlink:href="#a"/>
            </mask>
            <path fill="#A4F7C8" d="M132.72 148.384L93.17 86.09a38.294 38.294 0 0 1-5.966-20.521V.187H47.181v66.368c0 7.342-2.11 14.527-6.08 20.703l-39.26 61.07C-3.068 155.963 2.412 166 11.487 166h111.55c9.045 0 14.531-9.98 9.682-17.616" mask="url(#b)"/>
        </g>
        <path fill="#48A1A6" d="M164.606 182.272l-5.714-9.523c-4.86-8.1-15.78-10.445-23.241-4.652-3.836 2.98-7.305 7.695-9.163 15.128.953.953 24.777 23.823 38.118-.953"/>
        <path fill="#A4F7C8" d="M151.54 70.777h-46.693c-6.843 0-12.39-5.547-12.39-12.389 0-6.84 5.547-12.388 12.39-12.388h46.694c6.842 0 12.389 5.547 12.389 12.388 0 6.842-5.547 12.39-12.39 12.39"/>
        <path stroke="#2A3031" stroke-linecap="round" d="M108.658 70.777h32.4"/>
        <path fill="#61DBDB" d="M162.729 179.107c-9.804 4.663-22.388 6.26-34.06-5.41-2.377-2.379-4.745-4.395-7.081-6.097-7.442-5.425-17.918-3.438-22.893 4.312-7.204 11.224-17.741 27.64-22.99 35.826-1.397 2.177.162 5.031 2.748 5.032l99.66.03c2.576 0 4.138-2.836 2.762-5.014-5.93-9.389-18.146-28.679-18.146-28.679"/>
    </g>
</svg>
